<svg width="194" height="64" viewBox="0 0 194 64" fill="none" xmlns="http://www.w3.org/2000/svg">
<g clip-path="url(#clip0_2_238)">
<path d="M187.488 39.1113L192.842 42.6622C191.105 45.2084 186.948 49.5772 179.763 49.5772C170.839 49.5772 164.194 42.7091 164.194 33.9719C164.194 24.6746 170.91 18.3671 179.011 18.3671C187.159 18.3671 191.151 24.8144 192.443 28.2952L193.148 30.0708L172.155 38.7142C173.751 41.8447 176.241 43.4332 179.763 43.4332C183.285 43.4332 185.727 41.7044 187.488 39.1113ZM171.028 33.4818L185.046 27.6881C184.271 25.7493 181.97 24.3712 179.222 24.3712C175.724 24.3712 170.863 27.4548 171.028 33.4818Z" fill="#FF302F"/>
<path d="M154.073 2.45851H160.836V48.1522H154.073V2.45813V2.45851Z" fill="#20B15A"/>
<path d="M143.412 19.5817H149.941V47.3344C149.941 58.851 143.107 63.5932 135.029 63.5932C127.421 63.5932 122.842 58.5007 121.128 54.366L127.116 51.8895C128.196 54.4357 130.802 57.4496 135.029 57.4496C140.219 57.4496 143.412 54.249 143.412 48.2689V46.0264H143.178C141.628 47.895 138.669 49.5769 134.912 49.5769C127.069 49.5769 119.883 42.7789 119.883 34.0189C119.883 25.2116 127.069 18.3439 134.912 18.3439C138.646 18.3439 141.628 20.0025 143.178 21.8246H143.412V19.5821V19.5817ZM143.882 34.0189C143.882 28.5056 140.195 24.4875 135.499 24.4875C130.755 24.4875 126.763 28.5056 126.763 34.0189C126.763 39.4616 130.755 43.4096 135.499 43.4096C140.196 43.4332 143.882 39.4616 143.882 34.0189H143.882Z" fill="#3686F7"/>
<path d="M82.7572 33.9018C82.7572 42.8958 75.7127 49.5067 67.0711 49.5067C58.4298 49.5067 51.3849 42.8725 51.3849 33.9018C51.3849 24.8613 58.4298 18.2737 67.0711 18.2737C75.7127 18.2737 82.7572 24.8613 82.7572 33.9018ZM75.9005 33.9018C75.9005 28.2955 71.8143 24.4406 67.0711 24.4406C62.3279 24.4406 58.2417 28.2955 58.2417 33.9018C58.2417 39.4615 62.3279 43.363 67.0711 43.363C71.8147 43.363 75.9005 39.4615 75.9005 33.9018Z" fill="#FF302F"/>
<path d="M117.018 33.9719C117.018 42.9659 109.973 49.5768 101.332 49.5768C92.6904 49.5768 85.6459 42.9656 85.6459 33.9719C85.6459 24.9314 92.6904 18.3671 101.332 18.3671C109.973 18.3671 117.018 24.9082 117.018 33.9719ZM110.138 33.9719C110.138 28.3657 106.052 24.5107 101.308 24.5107C96.5651 24.5107 92.479 28.3657 92.479 33.9719C92.479 39.5317 96.5651 43.4332 101.308 43.4332C106.075 43.4332 110.138 39.5084 110.138 33.9719Z" fill="#FFBA40"/>
<path d="M25.6013 42.7323C15.762 42.7323 8.06012 34.8363 8.06012 25.0481C8.06012 15.2602 15.762 7.36418 25.6013 7.36418C30.9084 7.36418 34.7827 9.44318 37.6475 12.1064L42.3678 7.41106C38.3758 3.60331 33.0453 0.706055 25.6013 0.706055C12.1225 0.70643 0.780396 11.6396 0.780396 25.0481C0.780396 38.4573 12.1225 49.3901 25.6013 49.3901C32.881 49.3901 38.3758 47.0073 42.6731 42.5688C47.0876 38.1768 48.4495 32.0096 48.4495 27.0104C48.4495 25.4452 48.2618 23.8334 48.0503 22.6421H25.6013V29.1363H41.5927C41.1231 33.2013 39.8316 35.9812 37.9295 37.8731C35.6282 40.1861 31.9887 42.7323 25.6013 42.7323Z" fill="#3686F7"/>
</g>
<defs>
<clipPath id="clip0_2_238">
<rect width="193" height="63" fill="white" transform="translate(0.5 0.609375)"/>
</clipPath>
</defs>
</svg>
